<mxfile host="app.diagrams.net" modified="2024-06-21T16:35:18.895Z" agent="Mozilla/5.0 (Windows NT 10.0; Win64; x64) AppleWebKit/537.36 (KHTML, like Gecko) Chrome/126.0.0.0 Safari/537.36 Edg/126.0.0.0" version="24.6.1" etag="Hs5_92kUyR1JqqVuUtXa" type="github">
  <diagram name="第 1 页" id="Aqyevah0kVf9bPGlhM26">
    <mxGraphModel>
      <root>
        <mxCell id="0" />
        <mxCell id="1" parent="0" />
      </root>
    </mxGraphModel>
  </diagram>
</mxfile>
